<?xml version="1.0" encoding="utf-8"?>
<!-- Generator: Adobe Illustrator 23.0.1, SVG Export Plug-In . SVG Version: 6.00 Build 0)  -->
<svg version="1.1" id="Layer_1" xmlns="http://www.w3.org/2000/svg" xmlns:xlink="http://www.w3.org/1999/xlink" x="0px" y="0px"
	 viewBox="0 0 1920 1080" style="enable-background:new 0 0 1920 1080;" xml:space="preserve">
<style type="text/css">
	.st0{fill:#1E4CA1;}
	.st1{fill:#243168;}
</style>
<path class="st0" d="M647.97-0.6c106.41,153.26,168.71,339.44,168.52,540.16s-62.84,386.78-169.54,539.84l1272.03,1.2L1920,0.6
	L647.97-0.6z"/>
<path class="st1" d="M96.29,602.47l100.11-130.49c1.69-2.08,3.83-3.12,6.42-3.12h11.25c5.3,0,9.59,4.29,9.59,9.59v63.35
	c0,6.93,8.78,9.91,13,4.42l57.11-74.25c1.69-2.08,3.83-3.12,6.43-3.12h11.25c5.3,0,9.59,4.29,9.59,9.59V595.6
	c0,5.3-4.29,9.59-9.59,9.59h-12.81c-1.69,0-2.53-0.78-2.53-2.34V532.3c0-6.93-8.79-9.92-13.01-4.42l-56.91,74.19
	c-1.69,2.08-3.83,3.12-6.43,3.12h-11.25c-5.3,0-9.59-4.29-9.59-9.59v-63.35c0-6.93-8.78-9.91-13-4.42l-57.11,74.25
	c-1.69,2.08-3.83,3.12-6.43,3.12H97.66c-0.65,0-1.17-0.29-1.56-0.88C95.71,603.73,95.77,603.12,96.29,602.47z"/>
<path class="st1" d="M545.17,602.86V471.2c0-0.65,0.22-1.2,0.68-1.66c0.45-0.45,1-0.68,1.66-0.68h18.5c2.59,0,4.74,1.04,6.43,3.12
	l57.11,74.24c4.22,5.49,13,2.5,13-4.42v-63.35c0-5.3,4.29-9.59,9.59-9.59h5.55c5.3,0,9.59,4.29,9.59,9.59V595.6
	c0,5.3-4.29,9.59-9.59,9.59h-11.25c-2.6,0-4.74-1.04-6.43-3.12l-56.91-74.19c-4.22-5.5-13.01-2.52-13.01,4.42v70.55
	c0,1.56-0.85,2.34-2.53,2.34h-20.06c-0.65,0-1.2-0.23-1.66-0.68C545.39,604.06,545.17,603.51,545.17,602.86z"/>
<g>
	<path class="st0" d="M338.9,525.43c1.56-13.01,5.42-24.84,11.58-35.5c6.16-10.66,13.83-19.59,23.01-26.8
		c9.17-7.21,19.61-12.47,31.32-15.78c11.71-3.31,23.97-4.11,36.79-2.4c12.31,1.65,23.6,5.36,33.88,11.13
		c10.27,5.77,18.99,13.12,26.15,22.03c1.19,1.52,1.11,2.88-0.23,4.08l-18.74,19.09c-0.61,0.79-1.38,1.16-2.32,1.14
		c-0.94-0.03-1.7-0.5-2.27-1.43c-4.66-6.9-10.56-12.66-17.72-17.29c-7.16-4.63-15.06-7.37-23.69-8.24
		c-7.94-0.95-15.66-0.16-23.16,2.36c-7.5,2.53-14.21,6.27-20.11,11.21c-5.91,4.95-10.83,11-14.77,18.15
		c-3.94,7.15-6.42,14.95-7.43,23.4c-0.99,8.28-0.33,16.33,1.99,24.15c2.32,7.82,5.84,14.84,10.58,21.06
		c4.74,6.22,10.46,11.37,17.17,15.43c6.71,4.06,14.12,6.58,22.23,7.55c6.61,0.62,13.06,0.11,19.34-1.54
		c6.28-1.65,12.15-4.2,17.63-7.66c5.47-3.46,10.31-7.72,14.51-12.78c1.02-1.23,1.99-2.49,2.9-3.78c4.12-5.82,0.33-13.95-6.74-14.8
		l-35.58-4.27c-0.85-0.1-1.44-0.56-1.77-1.37c-0.33-0.81-0.19-1.61,0.41-2.39l19.08-21.88c2.56-2.78,5.61-3.95,9.16-3.53l52.02,6.24
		c4.76,0.57,8.3,4.67,8.18,9.46l0,0c-0.07,2.73-0.36,5.53-0.87,8.38c-1.71,12.82-5.64,24.51-11.79,35.09
		c-6.16,10.57-13.91,19.5-23.26,26.77c-9.35,7.28-19.89,12.57-31.59,15.88c-11.71,3.31-23.98,4.19-36.82,2.65
		c-12.67-1.52-24.25-5.35-34.74-11.49c-10.49-6.14-19.29-13.88-26.39-23.21c-7.11-9.34-12.26-19.93-15.47-31.8
		C338.17,550.88,337.34,538.44,338.9,525.43z"/>
	<path class="st0" d="M386.96,588.72c-2.05-1.48-2.95-3.26-3.07-5.06l-21.66,60.7c-1.7,4.78,0.78,10.03,5.56,11.73l10.24,3.65
		c4.78,1.7,10.03-0.79,11.73-5.56l19.77-55.38C401.81,595.75,393.83,593.68,386.96,588.72z"/>
	<path class="st0" d="M466.21,412.68l-10.24-3.65c-4.78-1.7-10.03,0.79-11.73,5.56l-20.1,56.32c1.32-1.3,3.14-2.23,5.44-2.46
		c8.51-0.87,16.85,1.44,24.9,4.4l17.29-48.44C473.48,419.64,470.99,414.38,466.21,412.68z"/>
	<path class="st0" d="M438.04,606.7c-8.24,1.7-16.72-2.51-23.93-5.94c-0.24-0.11-0.48-0.21-0.72-0.32l-19.68,55.15
		c-1.7,4.78,0.79,10.03,5.56,11.73l10.24,3.65c4.78,1.7,10.03-0.79,11.73-5.56l21.63-60.61
		C441.44,605.67,439.84,606.33,438.04,606.7z"/>
	<path class="st0" d="M497.69,423.92l-10.24-3.65c-4.78-1.7-10.03,0.79-11.73,5.56l-17.32,48.51c2.56,1,5.09,2.02,7.58,2.99
		c7.56,2.93,13.06,7.48,17.7,13.12l19.56-54.8C504.96,430.87,502.47,425.62,497.69,423.92z"/>
</g>
</svg>
