<svg id="Layer_1" data-name="Layer 1" xmlns="http://www.w3.org/2000/svg" viewBox="0 0 390.15 227.52"><defs><style>.cls-1{fill:#1f2834;}.cls-2{fill:#62c8d2;}.cls-3{fill:#0e0f12;}.cls-4{fill:#c6c6c7;}</style></defs><title>mgn logo</title><path class="cls-1" d="M319.56,392.89l32.37-42.18a2.57,2.57,0,0,1,2.08-1h3.63a3.1,3.1,0,0,1,3.1,3.1v20.48a2.35,2.35,0,0,0,4.21,1.43l18.46-24a2.58,2.58,0,0,1,2.08-1h3.64a3.1,3.1,0,0,1,3.1,3.1v37.87a3.1,3.1,0,0,1-3.1,3.1H385c-.55,0-.82-.25-.82-.75V370.21a2.35,2.35,0,0,0-4.21-1.43l-18.4,24a2.55,2.55,0,0,1-2.07,1h-3.64a3.1,3.1,0,0,1-3.1-3.1V370.19a2.35,2.35,0,0,0-4.21-1.43l-18.46,24a2.57,2.57,0,0,1-2.08,1h-8a.58.58,0,0,1-.51-.28A.49.49,0,0,1,319.56,392.89Z" transform="translate(-101.56 -273.35)"/><path class="cls-2" d="M399.53,371.55a23,23,0,0,1,6.64-16.28,22.29,22.29,0,0,1,16.16-6.45,23.17,23.17,0,0,1,8.62,1.73,21.75,21.75,0,0,1,7.05,4.63.65.65,0,0,1,.07,1l-4,5.23a.69.69,0,0,1-.54.35.68.68,0,0,1-.6-.29,15.12,15.12,0,0,0-4.84-3.71,13.79,13.79,0,0,0-11.65-.06,15.21,15.21,0,0,0-4.6,3.33,15.79,15.79,0,0,0-4.22,10.83,14.6,14.6,0,0,0,1.2,5.86,16,16,0,0,0,3.21,4.85,15.22,15.22,0,0,0,4.66,3.27,13,13,0,0,0,10.36.25,15.26,15.26,0,0,0,7.27-5.95c.21-.33.41-.67.6-1a2.34,2.34,0,0,0-2.09-3.43H424a.5.5,0,0,1-.47-.28.57.57,0,0,1,0-.6l4-5.92a2.54,2.54,0,0,1,2.14-1.13h12.93a2.29,2.29,0,0,1,2.28,2.08h0a14.34,14.34,0,0,1,0,2.08,23,23,0,0,1-1.86,8.94,22.68,22.68,0,0,1-4.91,7.24,22.44,22.44,0,0,1-7.27,4.81,22.91,22.91,0,0,1-8.94,1.74A22.22,22.22,0,0,1,406,388a22.63,22.63,0,0,1-4.72-7.34A24.06,24.06,0,0,1,399.53,371.55Z" transform="translate(-101.56 -273.35)"/><path class="cls-1" d="M452.23,393V350.45a.75.75,0,0,1,.22-.53.73.73,0,0,1,.54-.22h6a2.58,2.58,0,0,1,2.08,1l18.46,24a2.35,2.35,0,0,0,4.21-1.43V352.8a3.1,3.1,0,0,1,3.1-3.1h1.79a3.1,3.1,0,0,1,3.1,3.1v37.87a3.1,3.1,0,0,1-3.1,3.1H485a2.56,2.56,0,0,1-2.08-1l-18.4-24a2.35,2.35,0,0,0-4.21,1.43V393c0,.5-.27.75-.82.75H453a.75.75,0,0,1-.76-.75Z" transform="translate(-101.56 -273.35)"/><path class="cls-3" d="M253.24,401.69,303.45,421a17.72,17.72,0,0,1,8.65,25.9,114,114,0,0,1-96.78,54c-62.4,0-113.76-51.35-113.76-113.76s51.36-113.76,113.76-113.76a114,114,0,0,1,91.37,46,17.66,17.66,0,0,1-6.52,26.34l-48.34,23.6C237.94,376.07,238.82,396.14,253.24,401.69Z" transform="translate(-101.56 -273.35)"/><path class="cls-1" d="M214.33,413.91l-2.71,44.52a12.83,12.83,0,0,1-15.88,11.66c-37.87-9.25-65.85-43.78-65.6-83.95.29-47.1,39.28-85.62,86.38-85.33s85.62,39.28,85.33,86.38a85.91,85.91,0,0,1-13.94,46.38,12.81,12.81,0,0,1-19.49,2.32l-32.53-30.54A12.81,12.81,0,0,0,214.33,413.91Z" transform="translate(-101.56 -273.35)"/><path class="cls-4" d="M231.74,368.17l16.55-18.37a12.91,12.91,0,0,1,20.42,1.62,62.85,62.85,0,1,1-84.41-20,12.86,12.86,0,0,1,18.83,7.76L209.72,363A12.9,12.9,0,0,0,231.74,368.17Z" transform="translate(-101.56 -273.35)"/><path class="cls-2" d="M198.16,392.36l-16.42,6.19a3.8,3.8,0,0,1-5-2.59,40.63,40.63,0,0,1-1.32-11.31c.69-28.38,31-49.62,60.38-34.73a36.68,36.68,0,0,1,16.85,17.7c13.44,30.09-9.25,59.3-37.62,58.61a40.36,40.36,0,0,1-8.19-1,3.81,3.81,0,0,1-2.75-4.94l5.72-16.59A9,9,0,0,0,198.16,392.36Z" transform="translate(-101.56 -273.35)"/></svg>