<svg xmlns="http://www.w3.org/2000/svg" viewBox="0 0 2049 1152"><defs><style>.cls-1{fill:#1f2834;}.cls-2{fill:#62c8d2;}.cls-3{fill:#1a2026;}.cls-4{fill:#c6c6c7;}.cls-5{fill:#45a29e;}.cls-6{fill:#377b76;}.cls-7{fill:#0e0f12;}.cls-8{fill:#707071;}.cls-9{fill:#5cc4be;}</style></defs><title>wsb</title><g id="Layer_1" data-name="Layer 1"><rect class="cls-1" width="2049" height="1152"/></g><g id="Layer_2" data-name="Layer 2"><polygon class="cls-2" points="565.8 853.25 412.59 668.33 259.39 483.4 496.14 443.19 732.89 402.97 649.35 628.11 565.8 853.25"/><polygon class="cls-2" points="474.12 485.1 632.64 311.45 825.76 142.56 862.28 361.91 933.4 586.02 703.76 535.56 474.12 485.1"/><polygon class="cls-3" points="1603.81 861.61 1479.53 753.24 1355.24 644.87 1511.24 591.42 1667.23 537.97 1635.52 699.79 1603.81 861.61"/><polygon class="cls-4" points="804.6 640.09 809.8 493.19 815.01 346.29 940.21 424.27 1065.41 502.25 935 571.17 804.6 640.09"/><polygon class="cls-5" points="411.03 270.45 553.79 299.64 696.55 328.83 599.89 437.86 503.24 546.9 457.13 408.68 411.03 270.45"/><polygon class="cls-4" points="1354.41 755.18 1359.62 608.28 1364.83 461.38 1490.03 539.36 1615.22 617.34 1484.82 686.26 1354.41 755.18"/><polygon class="cls-6" points="1343.57 171.68 1490.59 278.96 1637.61 386.24 1471.19 459.93 1304.78 533.61 1324.17 352.65 1343.57 171.68"/><polygon class="cls-4" points="738.14 610.1 902.13 567.41 1066.12 524.73 1034.95 741.33 1038.37 962.69 870.96 784.01 738.14 610.1"/><polygon class="cls-7" points="1361.85 518.39 1419.78 377.88 1477.7 237.36 1599.06 369.59 1720.41 501.81 1541.13 510.1 1361.85 518.39"/><polygon class="cls-6" points="869.35 496.54 902.93 641.36 936.5 786.17 794.3 742.85 652.1 699.51 760.72 598.03 869.35 496.54"/><polygon class="cls-5" points="927.09 648.8 875.98 785.25 859.47 926.46 732.25 809.22 639.63 696.74 783.36 672.77 927.09 648.8"/><polygon class="cls-7" points="894.3 621.02 753.24 677.58 612.17 734.15 622.19 554.96 632.21 375.76 763.25 498.39 894.3 621.02"/><polygon class="cls-3" points="846.93 720.16 881.54 486.5 916.14 252.84 1128.29 403.65 1340.45 554.46 1093.69 637.31 846.93 720.16"/><polygon class="cls-6" points="1412.49 525.43 1446.07 670.25 1479.65 815.07 1337.44 771.74 1195.24 728.41 1303.87 626.92 1412.49 525.43"/><polygon class="cls-4" points="1303.31 895.91 1181.61 735.28 1059.91 574.66 1260.5 549.1 1461.09 523.53 1382.2 709.72 1303.31 895.91"/><polygon class="cls-6" points="1599.91 432.74 1553.7 574.03 1507.49 715.33 1408.23 604.66 1308.97 493.99 1454.44 463.37 1599.91 432.74"/><polygon class="cls-3" points="1430.02 622.97 1305.73 514.59 1181.45 406.22 1337.44 352.78 1493.44 299.33 1461.73 461.15 1430.02 622.97"/><polygon class="cls-3" points="658.13 773.87 533.84 665.5 409.56 557.13 565.55 503.69 721.55 450.24 689.84 612.06 658.13 773.87"/><polygon class="cls-7" points="1352.88 414.88 1211.82 471.44 1070.75 528.01 1080.77 348.82 1090.79 169.62 1221.84 292.25 1352.88 414.88"/><polygon class="cls-5" points="850.7 200.98 993.46 230.17 1136.22 259.36 1039.56 368.39 942.91 477.43 896.8 339.21 850.7 200.98"/><polygon class="cls-7" points="917.16 614.72 967.81 471.42 1018.46 328.12 1146.43 453.96 1274.4 579.79 1095.78 597.25 917.16 614.72"/><polygon class="cls-5" points="1159.62 393.8 1302.37 422.99 1445.13 452.17 1348.47 561.21 1251.82 670.25 1205.72 532.02 1159.62 393.8"/><polygon class="cls-6" points="1136.85 552.26 1164.59 698.3 1192.34 844.35 1051.99 795.36 911.63 746.36 1024.24 649.31 1136.85 552.26"/><path class="cls-8" d="M544.59,624.65,706,414.28a12.8,12.8,0,0,1,10.36-5h18.14a15.46,15.46,0,0,1,15.46,15.46V526.84c0,11.17,14.15,16,21,7.13L863,414.28a12.8,12.8,0,0,1,10.36-5h18.13a15.47,15.47,0,0,1,15.47,15.46V613.58A15.46,15.46,0,0,1,891.47,629H870.82q-4.08,0-4.08-3.76V511.54c0-11.18-14.17-16-21-7.12L754,624a12.78,12.78,0,0,1-10.36,5H725.53a15.47,15.47,0,0,1-15.47-15.46V511.46c0-11.16-14.15-16-21-7.13L597,624a12.78,12.78,0,0,1-10.36,5H546.79a2.89,2.89,0,0,1-2.51-1.41A2.34,2.34,0,0,1,544.59,624.65Z" transform="translate(0 -0.76)"/><path class="cls-9" d="M943.28,518.21a114.15,114.15,0,0,1,33.13-81.16,110,110,0,0,1,36-23.87,111.15,111.15,0,0,1,44.59-8.32,115.51,115.51,0,0,1,43,8.64,109.75,109.75,0,0,1,35.17,23.08c1.67,1.67,1.78,3.35.31,5l-20.09,26.06a3.33,3.33,0,0,1-5.66.31,75.3,75.3,0,0,0-24.17-18.52,68.69,68.69,0,0,0-58.09-.32,76,76,0,0,0-22.92,16.65,79,79,0,0,0-21,54,72.81,72.81,0,0,0,6,29.2,79.9,79.9,0,0,0,16,24.18,75.37,75.37,0,0,0,23.24,16.32,65.27,65.27,0,0,0,51.65,1.26,77,77,0,0,0,20.41-11.93,75.73,75.73,0,0,0,15.85-17.74q1.61-2.48,3-5.05c4.18-7.71-1.64-17.09-10.41-17.09h-44.08a2.52,2.52,0,0,1-2.35-1.41,2.79,2.79,0,0,1,.15-3L1083,505a12.58,12.58,0,0,1,10.67-5.65h64.45a11.43,11.43,0,0,1,11.38,10.36h0a69.84,69.84,0,0,1,.16,10.36,115.47,115.47,0,0,1-9.26,44.59,113.87,113.87,0,0,1-24.5,36.11,112.69,112.69,0,0,1-36.26,24,114.9,114.9,0,0,1-44.59,8.63A110.55,110.55,0,0,1,975.31,600a112.33,112.33,0,0,1-23.55-36.58A119.81,119.81,0,0,1,943.28,518.21Z" transform="translate(0 -0.76)"/><path class="cls-8" d="M1206.15,625.28V413a3.76,3.76,0,0,1,3.77-3.77h29.82a12.83,12.83,0,0,1,10.37,5L1342.17,534c6.81,8.85,21,4,21-7.13V424.72a15.47,15.47,0,0,1,15.47-15.46h9A15.46,15.46,0,0,1,1403,424.72V613.58A15.46,15.46,0,0,1,1387.55,629h-18.13a12.79,12.79,0,0,1-10.37-5l-91.74-119.6c-6.8-8.87-21-4.06-21,7.12V625.28c0,2.51-1.37,3.76-4.08,3.76h-32.34a3.74,3.74,0,0,1-3.77-3.76Z" transform="translate(0 -0.76)"/></g></svg>